<?xml version="1.0" standalone="no"?>
<!DOCTYPE svg PUBLIC "-//W3C//DTD SVG 20010904//EN" "http://www.w3.org/TR/2001/REC-SVG-20010904/DTD/svg10.dtd">
<svg version="1.0" xmlns="http://www.w3.org/2000/svg"
    width="526.000000pt" height="474.000000pt" viewBox="0 0 526.000000 474.000000"
    preserveAspectRatio="xMidYMid meet">

    <g transform="translate(0.000000,474.000000) scale(0.100000,-0.100000)"
        fill="#000000" stroke="none">
        <path
            d="M2447 4640 c-50 -103 -133 -193 -284 -306 -128 -96 -261 -217 -273
-249 -10 -26 11 -67 44 -85 14 -7 26 -19 26 -26 0 -7 -39 -34 -87 -61 -141
-78 -287 -243 -257 -291 23 -35 40 -37 102 -9 56 25 111 35 125 21 11 -12 -15
-49 -56 -80 -23 -18 -85 -56 -137 -86 -52 -30 -160 -100 -240 -155 -80 -55
-205 -131 -279 -168 -144 -73 -221 -137 -269 -223 l-23 -42 33 0 c18 0 110 9
203 20 94 11 189 20 212 20 l41 0 7 -63 c16 -151 -54 -248 -242 -333 -164 -75
-275 -130 -442 -222 -101 -56 -187 -102 -191 -102 -4 0 -13 -6 -19 -14 -25
-30 40 -135 103 -166 84 -40 183 -26 408 60 108 41 134 48 147 37 27 -21 31
-30 31 -80 l0 -48 -107 -51 c-456 -215 -924 -461 -990 -521 -17 -15 -21 -27
-17 -46 11 -46 -1 -42 279 -78 227 -28 340 -6 615 122 142 66 226 92 334 102
82 7 87 -8 18 -51 -265 -165 -521 -262 -824 -311 l-108 -18 0 -88 0 -89 93 0
c190 1 446 19 557 40 142 26 170 34 455 126 130 42 248 74 270 74 49 0 131
-38 166 -76 79 -85 88 -162 34 -287 -72 -167 -179 -274 -401 -403 -266 -153
-344 -215 -432 -346 -18 -26 -32 -49 -32 -53 0 -9 25 -1 210 72 326 127 533
215 604 258 160 94 272 130 411 129 146 0 237 -45 401 -196 44 -41 102 -90
129 -108 50 -34 189 -100 213 -100 19 0 15 17 -24 118 -20 51 -33 96 -30 99 3
4 52 -6 108 -20 78 -20 149 -50 293 -123 161 -80 200 -96 252 -101 81 -7 173
4 173 22 0 19 -142 167 -237 247 -160 133 -206 187 -271 315 -96 189 -129 311
-119 433 8 90 35 143 94 181 62 38 91 37 248 -11 170 -52 215 -60 419 -70 94
-4 194 -13 221 -20 78 -18 477 -152 608 -204 147 -58 241 -73 362 -57 136 19
134 16 85 88 -135 203 -512 425 -937 553 -40 12 -73 26 -73 31 0 6 34 26 76
46 113 54 178 55 317 9 128 -44 228 -54 346 -37 112 17 111 16 111 65 0 42 0
43 -126 142 -395 309 -513 369 -799 404 -55 7 -104 16 -108 20 -12 11 12 14
661 82 l112 12 0 42 0 41 -117 31 c-65 16 -203 51 -308 76 -104 26 -239 61
-300 79 -92 27 -111 36 -113 54 -3 23 39 63 68 63 10 0 35 -7 56 -16 70 -30
186 -44 402 -51 174 -5 212 -4 212 7 0 8 -24 37 -54 66 -44 43 -91 71 -243
145 -189 93 -410 224 -733 436 -189 124 -230 157 -230 184 0 64 118 57 368
-23 196 -62 277 -86 281 -82 9 8 -46 79 -101 128 -60 55 -177 122 -253 146
-22 7 -46 17 -53 23 -19 15 -6 20 121 47 59 13 107 29 107 35 0 29 -83 145
-147 206 -89 84 -218 150 -463 234 -239 82 -307 120 -405 224 -158 168 -204
211 -280 261 -43 27 -83 50 -89 50 -6 -1 -28 -36 -49 -80z m-357 -859 c13 -25
-22 -92 -61 -118 -45 -29 -107 -34 -123 -10 -15 24 -2 42 78 104 67 52 88 57
106 24z m826 -88 c27 -17 36 -47 24 -78 -19 -49 -93 -76 -154 -55 -39 13 -56
35 -56 72 0 70 115 108 186 61z m-298 -15 c20 -20 14 -82 -10 -113 -12 -15
-44 -38 -72 -51 -87 -41 -216 -28 -216 22 0 29 90 113 144 133 58 23 136 27
154 9z m546 -49 c33 -26 37 -83 6 -99 -36 -19 -200 25 -200 54 1 55 139 88
194 45z m-883 -108 c24 -62 -8 -109 -144 -209 -94 -70 -149 -95 -187 -87 -28
6 -30 10 -30 49 0 49 29 96 101 161 64 59 151 122 174 127 34 7 76 -13 86 -41z
m404 -306 c14 -13 25 -33 25 -43 0 -58 -99 -111 -221 -119 -108 -8 -129 -1
-129 41 0 39 15 54 90 91 124 63 194 72 235 30z m271 10 c12 -8 27 -28 34 -45
24 -58 -14 -97 -125 -126 -61 -17 -102 -18 -110 -3 -14 22 7 82 43 121 57 63
116 83 158 53z m-928 -95 c30 -19 33 -24 27 -53 -17 -79 -90 -147 -157 -147
-83 0 -148 111 -100 170 41 51 169 67 230 30z m1272 0 c44 -23 73 -60 88 -112
9 -32 7 -41 -10 -63 -18 -23 -25 -25 -105 -25 -106 0 -185 23 -219 63 -13 16
-24 37 -24 46 0 32 39 69 93 90 67 26 128 26 177 1z m-1585 -106 c32 -34 59
-107 51 -137 -10 -43 -167 -147 -220 -147 -45 0 -121 112 -132 194 -6 42 -5
45 26 61 35 18 178 53 223 54 18 1 37 -8 52 -25z m2081 -190 c68 -36 94 -62
94 -96 0 -35 -27 -43 -122 -34 -108 10 -168 47 -168 103 0 54 114 70 196 27z
m-1296 -194 c32 -32 35 -67 12 -115 -26 -53 -50 -62 -108 -40 -51 19 -84 60
-84 104 0 25 7 36 33 51 44 27 120 27 147 0z m-335 -88 c44 -30 80 -85 71
-107 -12 -32 -166 -5 -208 37 -24 24 -19 75 10 96 24 18 78 7 127 -26z m564 3
c39 -20 71 -97 71 -174 0 -99 -38 -112 -157 -55 -89 43 -123 115 -84 177 37
60 112 83 170 52z m-1015 -261 c27 -26 19 -59 -23 -97 -61 -55 -188 -101 -335
-122 -44 -6 -51 -4 -78 22 -29 27 -68 92 -68 112 0 17 106 47 335 95 55 11
154 5 169 -10z m1989 -288 c70 -25 104 -73 91 -129 -13 -63 -162 -86 -337 -53
-134 26 -175 56 -140 105 48 69 280 114 386 77z m382 -116 c22 -9 54 -29 72
-44 98 -82 36 -206 -104 -206 -117 0 -243 98 -243 189 0 23 8 34 37 52 65 41
157 44 238 9z m-2189 -26 c57 -30 109 -77 131 -118 11 -22 14 -50 11 -110 -7
-140 -47 -179 -115 -114 -42 40 -100 123 -138 198 -33 63 -40 144 -15 160 26
17 76 11 126 -16z m673 -80 c69 -35 103 -85 99 -145 -4 -57 -47 -89 -120 -89
-43 0 -55 5 -83 33 -56 56 -70 162 -29 208 24 26 70 24 133 -7z m-318 -5 c30
-16 69 -106 69 -160 0 -104 -98 -122 -144 -25 -30 63 -14 169 28 186 28 11 25
12 47 -1z" />
    </g>
</svg>